<mxfile host="app.diagrams.net" modified="2023-09-26T17:27:23.732Z" agent="Mozilla/5.0 (Windows NT 10.0; Win64; x64) AppleWebKit/537.36 (KHTML, like Gecko) Chrome/117.0.0.0 Safari/537.36 Edg/117.0.2045.41" version="21.8.2" etag="DWB-tDNyazPb4ymIEYlI" type="github">
  <diagram name="Trang-1" id="OEwGostHLlgZ6IIUjAuF">
    <mxGraphModel>
      <root>
        <mxCell id="0" />
        <mxCell id="1" parent="0" />
      </root>
    </mxGraphModel>
  </diagram>
</mxfile>
